<?xml version="1.0" encoding="UTF-8"?>
<svg id="Capa_1" xmlns="http://www.w3.org/2000/svg" version="1.1" viewBox="0 0 187.33 177.85">
  <!-- Generator: Adobe Illustrator 29.1.0, SVG Export Plug-In . SVG Version: 2.1.0 Build 142)  -->
  <defs>
    <style>
      .st0 {
        fill: #e41e2c;
      }
    </style>
  </defs>
  <path class="st0" d="M77.55,156.21c0-3.13-2.54-5.67-5.67-5.67s-5.67,2.54-5.67,5.67c0,2.43,1.53,4.49,3.67,5.3l-3.64,14.54h11.26l-3.64-14.54c2.15-.81,3.67-2.87,3.67-5.3Z"/>
  <g>
    <path class="st0" d="M92.36,176.39c-2.6,0-4.88-.54-6.81-1.61-1.94-1.07-3.44-2.59-4.5-4.56-1.06-1.97-1.59-4.28-1.59-6.92s.53-4.98,1.59-6.94c1.06-1.96,2.56-3.47,4.5-4.55,1.94-1.07,4.21-1.61,6.81-1.61,2.12,0,4.01.37,5.66,1.11,1.65.74,2.99,1.8,4.03,3.17s1.7,3.02,1.97,4.94h-6.12c-.21-1.27-.81-2.26-1.8-2.97-.99-.71-2.23-1.06-3.73-1.06-2.17,0-3.88.7-5.14,2.09-1.26,1.4-1.89,3.33-1.89,5.81s.63,4.42,1.89,5.81c1.26,1.4,2.97,2.1,5.14,2.1,1.5,0,2.75-.36,3.73-1.06.99-.71,1.59-1.7,1.8-2.97h6.12c-.27,1.9-.93,3.54-1.97,4.92-1.04,1.38-2.39,2.45-4.03,3.19-1.65.74-3.53,1.11-5.66,1.11Z"/>
    <path class="st0" d="M118.49,176.27c-2.6,0-4.88-.54-6.83-1.61-1.95-1.07-3.46-2.58-4.55-4.53-1.08-1.95-1.62-4.24-1.62-6.89s.54-4.97,1.62-6.92c1.08-1.95,2.6-3.45,4.55-4.52s4.22-1.59,6.83-1.59,4.91.53,6.86,1.58c1.95,1.05,3.46,2.55,4.53,4.5,1.07,1.95,1.61,4.27,1.61,6.95s-.54,4.95-1.62,6.91c-1.08,1.96-2.6,3.47-4.55,4.53-1.95,1.06-4.22,1.59-6.83,1.59ZM118.52,171.14c2.27,0,4.02-.72,5.25-2.16,1.23-1.44,1.84-3.35,1.84-5.75s-.62-4.34-1.84-5.77c-1.23-1.43-2.99-2.14-5.28-2.14s-4.03.71-5.27,2.14c-1.24,1.43-1.86,3.34-1.86,5.73s.62,4.34,1.86,5.78c1.24,1.44,3,2.16,5.3,2.16Z"/>
    <path class="st0" d="M158.63,175.89h-6.22l-12.41-16.56h-.12v16.56h-5.63v-25.31h5.97l12.66,17.03h.12v-17.03h5.62v25.31Z"/>
  </g>
  <g>
    <path class="st0" d="M103.49,43.24c4.73.96,11.99,2.78,19.95,3.48,11.43,1,23.08.76,30.76,1.13.95.05,1.78.7,2.11,1.59,2.56,6.82,3.98,14.2,3.98,21.91,0,32.56-24.96,59.29-56.79,62.11-1.47.13-2.74-1.02-2.74-2.5,0,0,0-63.92,0-85.23,0-1.99,1.29-2.78,2.73-2.49Z"/>
    <path class="st0" d="M92.36,46.18c-5.7,1.55-11.92,4.06-22.84,5.78-14.65,2.31-30.08,3.18-30.08,3.18-1.06.1-1.96.85-2.2,1.88-1.09,4.62-1.68,9.44-1.68,14.39,0,32.56,24.96,59.29,56.79,62.11,1.47.13,2.74-1.02,2.74-2.5,0,0,0-61.76,0-82.35,0-1.88-1.49-2.83-2.73-2.49Z"/>
  </g>
  <circle class="st0" cx="80.92" cy="34.32" r="8.5"/>
  <circle class="st0" cx="114.93" cy="28.64" r="8.5"/>
  <path class="st0" d="M8.71,16.33c-1.14-1.14-3.07-.92-3.91.46C-.5,25.5.65,37.05,8.21,44.62s19.11,8.71,27.83,3.41c1.38-.84,1.6-2.76.46-3.91L8.71,16.33Z"/>
  <path class="st0" d="M30.77,31.99l8.93,8.93c1.14,1.14,3.07.92,3.91-.46,3.93-6.47,4.31-14.5,1.15-21.3-.72-1.56-2.81-1.89-4.02-.67l-9.97,9.97c-.98.98-.98,2.56,0,3.54Z"/>
  <path class="st0" d="M178.62,2.19c1.14-1.14,3.07-.92,3.91.46,5.3,8.71,4.16,20.26-3.41,27.83-7.57,7.57-19.11,8.71-27.83,3.41-1.38-.84-1.6-2.76-.46-3.91l27.79-27.79Z"/>
  <path class="st0" d="M156.56,17.85l-8.93,8.93c-1.14,1.14-3.07.92-3.91-.46-3.93-6.47-4.31-14.5-1.15-21.3.72-1.56,2.81-1.89,4.02-.67l9.97,9.97c.98.98.98,2.56,0,3.54Z"/>
  <path class="st0" d="M48.11,176.05l-9.97-25.31h6.47l6.94,18.56h.16l6.84-18.56h6.34l-9.97,25.31h-6.81Z"/>
</svg>